<svg xmlns="http://www.w3.org/2000/svg" width="54.803" height="54.777" viewBox="0 0 54.803 54.777">
  <g id="Group_566" data-name="Group 566" transform="translate(-1.87 -11.171)">
    <path id="Path_980" data-name="Path 980" d="M16.171,32.61a5.262,5.262,0,1,0-5.262-5.262A5.268,5.268,0,0,0,16.171,32.61Zm0-7.766a2.5,2.5,0,1,1-2.5,2.5A2.506,2.506,0,0,1,16.171,24.845Z" transform="translate(3.381 4.093)" fill="#3d268a" stroke="#3b2c88" stroke-width="0.25"/>
    <path id="Path_981" data-name="Path 981" d="M30.714,32.61a5.262,5.262,0,1,0-5.262-5.262A5.267,5.267,0,0,0,30.714,32.61Zm0-7.766a2.5,2.5,0,1,1-2.5,2.5A2.506,2.506,0,0,1,30.714,24.845Z" transform="translate(8.898 4.093)" fill="#3d268a" stroke="#3b2c88" stroke-width="0.25"/>
    <path id="Path_982" data-name="Path 982" d="M41.791,34.688a21.527,21.527,0,0,1-30.4,0,1.379,1.379,0,1,0-1.95,1.95,24.284,24.284,0,0,0,34.306,0,1.379,1.379,0,1,0-1.95-1.95Z" transform="translate(2.67 8.72)" fill="#3d268a" stroke="#3b2c88" stroke-width="0.25"/>
    <path id="Path_983" data-name="Path 983" d="M56.548,38.56a25.6,25.6,0,0,0-2.757-11.875,27.256,27.256,0,1,0,.514,22.636S56.548,45.677,56.548,38.56Zm-27.289,24.5A24.5,24.5,0,1,1,52.206,29.953a24.167,24.167,0,0,1,1.538,7.782c.022.272.021.543.021.825q0,.975-.076,1.939c-.051.654-.128,1.3-.232,1.949a23.716,23.716,0,0,1-.884,3.67v0h0A24.442,24.442,0,0,1,29.259,63.064ZM60.283,52.777" fill="#3d268a" stroke="#3b2c88" stroke-width="0.25"/>
  </g>
</svg>
