<svg xmlns="http://www.w3.org/2000/svg" width="58.289" height="52.398" viewBox="0 0 58.289 52.398">
  <g id="Group_565" data-name="Group 565" transform="translate(-2.032 -2.8)">
    <path id="Path_979" data-name="Path 979" d="M50.232,10.565h-9.85V9.053A5.756,5.756,0,0,0,34.629,3.3h-6.9a5.756,5.756,0,0,0-5.753,5.753h0v1.534h-9.85a9.588,9.588,0,0,0-9.589,9.589V45.109A9.588,9.588,0,0,0,12.121,54.7H50.232a9.588,9.588,0,0,0,9.589-9.589V20.154A9.588,9.588,0,0,0,50.232,10.565ZM25.807,9.053a1.919,1.919,0,0,1,1.918-1.918h6.9a1.919,1.919,0,0,1,1.918,1.918v1.534H25.807Zm-13.7,5.37H50.217a5.756,5.756,0,0,1,5.753,5.753V38.434H6.368V20.154A5.756,5.756,0,0,1,12.121,14.4ZM50.232,50.862H12.121a5.756,5.756,0,0,1-5.753-5.753V42.236H29.259v1.208a1.918,1.918,0,1,0,3.836,0V42.236H55.986v2.873A5.756,5.756,0,0,1,50.232,50.862Z" transform="translate(0 0)" fill="#3d268a" stroke="#fff" stroke-miterlimit="10" stroke-width="1"/>
  </g>
</svg>
