<svg xmlns="http://www.w3.org/2000/svg" width="27.682" height="17.411" viewBox="0 0 27.682 17.411">
  <g id="Group_1166" data-name="Group 1166" transform="translate(-10.75 -18.72)">
    <path id="Path_1671" data-name="Path 1671" d="M16.183,18.72H39.711a.324.324,0,0,1,.2.573L28.145,28.485a.324.324,0,0,1-.4,0L15.985,19.293a.324.324,0,0,1,.2-.573Z" transform="translate(-3.46)" fill="#fb5e24"/>
    <path id="Path_1672" data-name="Path 1672" d="M27.749,50.382,25.481,48.61a.324.324,0,0,0-.4,0l-9.1,7.108a.324.324,0,0,0,.2.573H39.711a.324.324,0,0,0,.2-.573L30.814,48.61a.324.324,0,0,0-.4,0l-2.268,1.772A.324.324,0,0,1,27.749,50.382Z" transform="translate(-3.46 -20.16)" fill="#fb5e24"/>
    <path id="Path_1673" data-name="Path 1673" d="M66.268,29.1l9.091-8.022a.324.324,0,0,1,.535.24V36.263a.324.324,0,0,1-.515.256l-9.095-6.933a.324.324,0,0,1-.044-.456A.3.3,0,0,1,66.268,29.1Z" transform="translate(-37.462 -1.541)" fill="#fb5e24"/>
    <path id="Path_1674" data-name="Path 1674" d="M20.376,29.1l-9.091-8.022a.324.324,0,0,0-.535.24V36.263a.324.324,0,0,0,.515.256l9.095-6.933a.324.324,0,0,0,.044-.456A.3.3,0,0,0,20.376,29.1Z" transform="translate(0 -1.541)" fill="#fb5e24"/>
  </g>
</svg>
