<svg xmlns="http://www.w3.org/2000/svg" width="18.899" height="21.32" viewBox="0 0 18.899 21.32">
  <path id="Path_1675" data-name="Path 1675" d="M37.258,29.492c-1.316-1.063-3.957-3.109-4.159-3.218-.848-.449-2.044,1.709-2.392,2.259h0a1.282,1.282,0,0,1-2.1.136V28.65h0a46.26,46.26,0,0,1-4.385-5.18c-1.031-1.374-.234-2.126-.016-2.286l.048-.035h0a6.659,6.659,0,0,0,.566-.436A5.705,5.705,0,0,0,26.4,18.322a1.169,1.169,0,0,0-.154-1.114l-2.53-3.431a1.164,1.164,0,0,0-1.627-.249l-.01.007a8.255,8.255,0,0,0-2.985,3.758,8.352,8.352,0,0,0-.266,1.273,8.444,8.444,0,0,0,.266,3.083,14.625,14.625,0,0,0,1.4,3.482,18.743,18.743,0,0,0,2.955,4.024s1.27,1.422,2.278,2.344a11.435,11.435,0,0,0,4.489,2.748,5.55,5.55,0,0,0,3.016.266,5.471,5.471,0,0,0,2.278-1.207,8.4,8.4,0,0,0,2.022-2.339A1.159,1.159,0,0,0,37.258,29.492Z" transform="translate(-18.787 -13.302)" fill="#fb5e24"/>
</svg>
