<svg xmlns="http://www.w3.org/2000/svg" width="79.298" height="54.777" viewBox="0 0 79.298 54.777">
  <g id="Group_564" data-name="Group 564" transform="translate(-1.87 -11.171)">
    <path id="Path_975" data-name="Path 975" d="M15.933,32.133a5.024,5.024,0,1,0-5.024-5.024A5.03,5.03,0,0,0,15.933,32.133Zm0-7.414a2.39,2.39,0,1,1-2.39,2.39A2.392,2.392,0,0,1,15.933,24.72Z" transform="translate(2.824 3.418)" fill="#3d268a" stroke="#3b2c88" stroke-width="0.25"/>
    <path id="Path_976" data-name="Path 976" d="M30.476,32.133a5.024,5.024,0,1,0-5.024-5.024A5.029,5.029,0,0,0,30.476,32.133Zm0-7.414a2.39,2.39,0,1,1-2.39,2.39A2.392,2.392,0,0,1,30.476,24.72Z" transform="translate(7.432 3.418)" fill="#3d268a" stroke="#3b2c88" stroke-width="0.25"/>
    <path id="Path_977" data-name="Path 977" d="M40.306,34.67a20.551,20.551,0,0,1-29.027,0,1.317,1.317,0,0,0-1.862,1.862,23.183,23.183,0,0,0,32.751,0,1.317,1.317,0,0,0-1.862-1.862Z" transform="translate(2.23 7.283)" fill="#3d268a" stroke="#3b2c88" stroke-width="0.25"/>
    <path id="Path_978" data-name="Path 978" d="M74.137,23.012a16.627,16.627,0,0,0-22.694,2.976,26.02,26.02,0,1,0,.491,21.61c.345.385.693.768,1.072,1.115L45.882,61.331a1.317,1.317,0,0,0,.5,1.792l4.448,2.528a1.32,1.32,0,0,0,.651.171,1.338,1.338,0,0,0,.352-.047,1.318,1.318,0,0,0,.8-.623l7.127-12.631a16.669,16.669,0,0,0,14.388-29.51ZM28.023,60.717A23.394,23.394,0,1,1,49.93,29.107,23.072,23.072,0,0,1,51.4,36.537c.021.259.02.519.02.787q0,.93-.072,1.851c-.049.624-.122,1.246-.221,1.861a22.641,22.641,0,0,1-.844,3.5v0h0A23.334,23.334,0,0,1,28.023,60.717ZM60.2,49.909a2.177,2.177,0,0,0-2.563.988L50.978,62.708,48.82,61.483l6.675-11.821a2.17,2.17,0,0,0-.477-2.68,13.386,13.386,0,0,1-2.038-2.248c.074-.248.128-.5.194-.751.072-.269.147-.536.209-.806.088-.382.159-.769.229-1.155.047-.255.1-.508.14-.765.066-.433.109-.87.153-1.308.022-.216.054-.429.07-.645.018-.25.022-.5.033-.753L72.617,47.81A13.958,13.958,0,0,1,60.2,49.909Zm16.972-7.731h0a14.118,14.118,0,0,1-2.453,3.734L53.971,35.593c-.026-.415-.049-.83-.095-1.242-.025-.23-.068-.457-.1-.685-.062-.438-.122-.877-.205-1.312-.051-.265-.119-.524-.178-.787-.09-.392-.178-.785-.284-1.173-.076-.274-.166-.544-.25-.815s-.15-.525-.24-.784A14.031,14.031,0,0,1,77.176,42.178Z" fill="#3d268a" stroke="#3b2c88" stroke-width="0.25"/>
  </g>
</svg>
